<svg width="82" height="68" viewBox="0 0 82 68" fill="none" xmlns="http://www.w3.org/2000/svg"><path d="M76.5 45.3H5.4c-2.6 0-4.6 2-4.6 4.3V53c0 2.3 2 4.2 4.6 4.2h1v1c0 5.4 4.8 9.7 10.4 9.7h48.3c5.7 0 10.4-4.4 10.4-9.8v-1h1c2.5 0 4.6-1.8 4.6-4.2v-3.4c0-2.2-2-4.2-4.6-4.2Zm-4 12.8c0 3.8-3.3 6.8-7.3 6.8H16.7c-4 0-7.2-3-7.2-6.8v-1h63v1Zm5.4-5.2c0 .7-.6 1.3-1.4 1.3H5.4c-.8 0-1.4-.6-1.4-1.3v-3.4c0-.6.6-1.2 1.4-1.2h71.2c.8 0 1.4.6 1.4 1.3v3.3h-.1ZM17.9 37.3l5.7 4 5.8-4 5.8 4 5.7-4 5.7 4 5.8-4 5.8 4 5.8-4 5.8 4 6.6-4.6-1.8-2.4-4.8 3.2-5.8-3.9-5.8 4-5.8-4-5.8 4-5.7-4-5.7 4-5.8-4-5.8 4-5.7-4-5.8 4-4.8-3.3-2 2.4 6.8 4.6 5.8-4ZM75.5 30.6v-3C74.7 12.4 59.5 0 40.9 0S7 12.3 6.3 27.7v3h69.2ZM40.9 3c16.9 0 30.8 11 31.4 24.7H9.5C10.2 14 24 3 40.9 3Z" fill="#81B3D2"/><path d="M41 16.8c1.1 0 2-1 2-2 0-1.1-.9-2-2-2-1.2 0-2.2.9-2.2 2 0 1 1 2 2.1 2ZM32.5 12c1.2 0 2.1-1 2.1-2 0-1.1-1-2-2-2-1.2 0-2.2.9-2.2 2 0 1 1 2 2.1 2ZM49.4 12c1.1 0 2-1 2-2 0-1.1-.9-2-2-2-1.2 0-2.1.9-2.1 2 0 1 .9 2 2 2Z" fill="#81B3D2"/></svg>