<svg width="67" height="75" viewBox="0 0 67 75" fill="none" xmlns="http://www.w3.org/2000/svg"><path d="M64 22.1H38.2c14.3-6.8 15.5-11 15-13.5-1.2-3.9-6-6.9-10.4-5.3-5.8 2.1-7.4 10.3-9 16.2C32 13.5 30 6 25.5 2a8 8 0 0 0-6-2c-4.3.4-10.3 5.3-7.7 10.8 2.3 5.3 10 8.7 15.2 11.4H3.4c-1.7 0-3 1.3-3 2.8v11.2c0 1.6 1.4 2.8 3 2.8h.3v36H64V39h.1c1.7 0 3-1.3 3-2.8V25a3 3 0 0 0-3-2.9ZM44.6 5.8c2.2-.3 5.2 1.3 5.5 3.2.4 2.7-3.5 5.2-5.3 6.3-2.6 1.7-5.2 2.6-7.6 4 .8-3.7 2.6-12.9 7.4-13.5Zm-23.9 9.8c-2.3-1.5-6.7-4.4-6.6-7.7 0-3.6 6-6.5 9.2-3.8 4 3.3 5.9 11 7.4 16.4-3.4-1.6-6.6-2.8-10-4.9ZM27 72H6.8V39H27v33Zm0-36H3.6V25.1H27v11Zm10.5 36H30V25.1h7.5V72Zm23.2 0h-20V39h20.1v33Zm3.1-36H40.7V25.1h23.1v11Z" fill="#81B3D2"/></svg>