<svg width="78" height="72" viewBox="0 0 78 72" fill="none" xmlns="http://www.w3.org/2000/svg"><path d="M30.9 65h16.5V41.1H30.9v23.7Zm13.5-3H33.9V44h10.4v18Z" fill="#81B3D2"/><path d="m75.3 39.2 2.2-2.1-10.2-9.9V.4H53v13.1L39 0 .4 37.2l2.1 2 8-7.7v37.6h-4V72h66v-2.9h-5.3V31.4l8 7.8ZM56 3.4h8.2v21L56 16.5V3.4ZM64.3 69H13.8V28.5L38.9 4.2l25.3 24.3V69Z" fill="#81B3D2"/><path d="M31.2 27c0 4.3 3.6 7.8 8 7.8a8 8 0 0 0 8-7.8c0-4.2-3.6-7.6-8-7.6-4.5 0-8 3.4-8 7.6Zm8-5a5 5 0 0 1 5 5 5 5 0 0 1-5 5 5 5 0 0 1-5.2-5c0-2.6 2.3-5 5.1-5ZM21 41.2h-3.1V45h3v-3.8ZM27 41.2h-3V45h3v-3.8ZM21 47.1h-3.1v4h3v-4ZM27 47.1h-3v4h3v-4ZM53.9 41.2h-3.1V45h3v-3.8ZM60 41.2h-3V45h3v-3.8ZM53.9 47.1h-3.1v4h3v-4ZM60 47.1h-3v4h3v-4Z" fill="#81B3D2"/></svg>