<svg width="32" height="32" viewBox="0 0 32 32" fill="none" xmlns="http://www.w3.org/2000/svg"><path fill="#81B3D3" d="M0 0h32v32H0z"/><path d="M10.7 19.7v.1h.1a15 15 0 0 0 2.1 1.9c.8.5 1.7.8 2.7.9H16.5a2.9 2.9 0 0 0 1.8-1.1v-.2l.1-.1a3.8 3.8 0 0 0 .2-.8c0-.6-.3-1-.9-1.5a5.9 5.9 0 0 0-2.4-1.1l-.6-.2h-.1c-1.2-.3-2.2-.7-3.2-1.3-1-.6-1.6-1.4-2-2.5a27.7 27.7 0 0 1-.3-1.7v-1.3c.1-.5.2-1 .4-1.3l.6-1.2c.7-1.2 1.7-2 2.8-2.5a9 9 0 0 1 5.4-.6A13.2 13.2 0 0 1 23 6.9l-1.9 4c-.6-.4-1.2-.8-1.9-1a5 5 0 0 0-2.2-.6h-.3c-.5 0-1 .3-1.4.7-.5.4-.7.8-.7 1.2v.4l.3.5a2.9 2.9 0 0 0 1.5.9 61.3 61.3 0 0 0 3.8 1c1.2.5 2.2 1.2 2.8 2.2.6 1 1 2.1 1 3.3v.9a8 8 0 0 1-1.2 3.3 6.2 6.2 0 0 1-3.7 2.8 24.8 24.8 0 0 1-2.2.4l-1 .1h-.4A11.7 11.7 0 0 1 8 24l2.7-4.3Z" fill="#fff"/></svg>